<svg xmlns="http://www.w3.org/2000/svg" data-name="Layer 1" viewBox="0 0 5 5" x="0px" y="0px">
    <title>logo</title>
    <g fill="#71DB77">
        <path d="M3.42617,1.90124c-.19767.256-.38938.51666-.581.77729q-.09333-.34261-.18477-.68574c-.03523-.13317-.25495-.171-.29019-.01444-.06958.30921-.14338.6174-.21177.92686-.16142-.18972-.31226-.38688-.471-.58059-.08359-.102-.28237-.01313-.2388.12032a13.22251,13.22251,0,0,0,.62746,1.46271c.03116.067.12811.01588.10124-.05078-.10266-.25466-.19985-.51368-.28252-.77693.07675.0906.15552.17894.23415.26527a.159.159,0,0,0,.2685-.05681c.048-.20715.09205-.41508.13525-.6232l.10289.38207a.15176.15176,0,0,0,.27207.05069c.14566-.19581.29227-.391.43757-.58717-.04352.32185-.10236.6422-.16925.959a1.18009,1.18009,0,0,0-.5583.17182.156.156,0,0,0,.1398.27871,1.52839,1.52839,0,0,1,.53563-.15376.15584.15584,0,0,0,.1525-.106c.11473-.554.18659-1.11052.25052-1.67208C3.714,1.83172,3.50777,1.79556,3.42617,1.90124Z"></path>
        <path d="M1.22127,1.69153a.18178.18178,0,0,0-.0354-.07019A.10092.10092,0,0,0,1.169,1.59922l-.00985-.00887A.16054.16054,0,0,0,.889,1.65153a.1682.1682,0,0,0,.0095.13635.21325.21325,0,0,0,.069.07769.12543.12543,0,0,0,.0616.023.12485.12485,0,0,0,.0637.00037.16652.16652,0,0,0,.12845-.19739Z"></path>
        <path d="M2.68756,1.25792a.42118.42118,0,0,0-.0361-.10073.18.18,0,0,0-.0983-.08737.16062.16062,0,0,0-.08036-.0059.16839.16839,0,0,0-.12268.15337.37466.37466,0,0,0,.01288.10931.17113.17113,0,0,0,.07181.10469.16879.16879,0,0,0,.1248.02325.16689.16689,0,0,0,.10469-.07181A.1636.1636,0,0,0,2.68756,1.25792Z"></path>
        <path d="M4.11781,1.34144a.18172.18172,0,0,0-.03911-.07657l-.01651-.01428a.11455.11455,0,0,0-.052-.03063L3.97158,1.213l-.001.00008-.004-.00042a.19352.19352,0,0,0-.08321.01832.17258.17258,0,0,0-.07392.06863l-.00283.00328-.01811.03814-.00721.04017a.119.119,0,0,0,.00989.05913.07863.07863,0,0,0,.01807.03591.07834.07834,0,0,0,.02743.03067.07929.07929,0,0,0,.03507.02282.11716.11716,0,0,0,.05924.01627.16224.16224,0,0,0,.02745-.00054.17812.17812,0,0,0,.06751-.017.14865.14865,0,0,0,.05257-.0421.142.142,0,0,0,.0344-.05935A.171.171,0,0,0,4.11781,1.34144Z"></path>
    </g>
</svg>